<svg width="275" height="275" xmlns="http://www.w3.org/2000/svg" xmlns:xlink="http://www.w3.org/1999/xlink" xml:space="preserve" overflow="hidden"><defs><clipPath id="clip0"><rect x="2063" y="1100" width="275" height="275"/></clipPath></defs><g clip-path="url(#clip0)" transform="translate(-2063 -1100)"><path d="M2121.31 1316.79C2128.17 1323.68 2128.17 1334.36 2121.31 1341.25L2092.15 1350.89 2087.01 1345.72 2096.61 1316.45C2103.81 1309.9 2114.45 1309.9 2121.31 1316.79ZM2256.1 1137 2084.61 1309.56 2063 1375 2128.51 1353.3 2300 1181.09" fill="#FFFFFF" fill-rule="evenodd"/><path d="M2333.93 1128.2 2309.57 1104.08C2304.08 1098.64 2295.5 1098.64 2290.01 1104.08L2266 1127.86 2309.57 1171 2333.58 1147.22C2339.41 1142.12 2339.41 1133.63 2333.93 1128.2Z" fill="#FFFFFF" fill-rule="evenodd"/></g></svg>