<!DOCTYPE svg PUBLIC "-//W3C//DTD SVG 1.1//EN" "http://www.w3.org/Graphics/SVG/1.1/DTD/svg11.dtd">
<!-- Uploaded to: SVG Repo, www.svgrepo.com, Transformed by: SVG Repo Mixer Tools -->
<svg fill="#ffffff" width="64px" height="64px" viewBox="-0.6 -0.6 31.20 31.20" xmlns="http://www.w3.org/2000/svg" stroke="#ffffff" stroke-width="1.05">
<g id="SVGRepo_bgCarrier" stroke-width="0"/>
<g id="SVGRepo_tracerCarrier" stroke-linecap="round" stroke-linejoin="round" stroke="#CCCCCC" stroke-width="0.18"/>
<g id="SVGRepo_iconCarrier">
<path d="M14.5 10c-2.48 0-4.5 2.02-4.5 4.5s2.02 4.5 4.5 4.5 4.5-2.02 4.5-4.5-2.02-4.5-4.5-4.5zm0 1c1.94 0 3.5 1.56 3.5 3.5S16.44 18 14.5 18 11 16.44 11 14.5s1.56-3.5 3.5-3.5zm0-11c-.277 0-.5.223-.5.5v1.525C7.503 2.285 2.284 7.503 2.025 14H.5c-.277 0-.5.223-.5.5s.223.5.5.5h1.525C2.285 21.497 7.503 26.716 14 26.975V28.5c0 .277.223.5.5.5s.5-.223.5-.5v-1.525c6.497-.26 11.716-5.478 11.975-11.975H28.5c.277 0 .5-.223.5-.5s-.223-.5-.5-.5h-1.525C26.715 7.503 21.497 2.284 15 2.025V.5c0-.277-.223-.5-.5-.5zM14 3.025V4.5c0 .277.223.5.5.5s.5-.223.5-.5V3.025C20.956 3.28 25.72 8.045 25.975 14H24.5c-.277 0-.5.223-.5.5s.223.5.5.5h1.475C25.72 20.956 20.955 25.72 15 25.975V24.5c0-.277-.223-.5-.5-.5s-.5.223-.5.5v1.475C8.044 25.72 3.28 20.955 3.025 15H4.5c.277 0 .5-.223.5-.5s-.223-.5-.5-.5H3.025C3.28 8.044 8.045 3.28 14 3.025z"/>
</g>
</svg>