<svg xmlns="http://www.w3.org/2000/svg" xml:space="preserve" width="64" height="64" fill="#fff" stroke="#fff" stroke-width=".005" viewBox="0 0 512 512"><path d="M102.4 93.867q8.96 0 17.92 2.56c.853.853 1.707.853 2.56.853q5.12 0 7.68-5.12c1.707-4.267-.853-9.387-5.12-11.093-7.68-2.56-15.36-4.267-23.04-4.267-5.12 0-8.533 3.413-8.533 8.533s3.413 8.534 8.533 8.534zM51.2 153.6c-.853-4.267-5.973-7.68-10.24-6.827s-7.68 5.973-6.827 10.24c1.707 7.68 4.267 15.36 8.533 22.187 1.707 2.56 5.12 4.267 7.68 4.267 1.707 0 3.413 0 3.413-.853 4.267-2.56 5.973-7.68 3.413-11.947-2.559-5.974-5.119-11.094-5.972-17.067zM152.747 135.68c.853 4.267 4.267 6.827 8.533 6.827 0 0 .853 0 2.56.853 4.267-.853 7.68-5.973 6.827-10.24-1.707-7.68-4.267-15.36-8.533-22.187-2.56-4.267-7.68-5.973-11.947-3.413s-5.973 7.68-3.413 11.947c2.559 5.12 5.119 10.24 5.973 16.213zM46.08 122.88c1.707.853 2.56.853 4.267.853 3.413 0 5.973-1.707 7.68-4.267 2.56-5.12 6.827-9.387 11.093-13.653 3.413-2.56 4.267-8.533.853-11.947-2.56-3.413-7.68-4.267-11.093-.853q-8.96 7.68-15.36 17.92c-2.56 4.267-1.707 9.387 2.56 11.947zM101.547 196.267c-5.973 0-11.093-1.707-17.067-3.413-4.267-1.707-9.387.853-11.093 5.12s.853 9.387 5.12 11.093c7.68 2.56 15.36 4.267 23.893 4.267 5.12 0 8.533-4.267 7.68-8.533 0-5.121-4.267-8.534-8.533-8.534zM158.72 167.253c-4.267-1.707-9.387-.853-11.947 3.413-2.56 5.12-6.827 9.387-11.093 13.653-3.413 2.56-4.267 8.533-.853 11.947 1.707 1.707 4.267 2.56 6.827 2.56 1.707 0 3.413-.853 5.12-1.707q8.96-7.68 15.36-17.92c1.706-4.266.853-9.386-3.414-11.946zM102.4 110.933c-18.773 0-34.133 15.36-34.133 34.133S83.627 179.2 102.4 179.2s34.133-15.36 34.133-34.133-15.36-34.134-34.133-34.134zm0 51.2c-9.387 0-17.067-7.68-17.067-17.067S93.013 128 102.4 128s17.067 7.68 17.067 17.067-7.68 17.066-17.067 17.066zM233.813 122.88c1.707.853 2.56.853 4.267.853 3.413 0 5.973-1.707 7.68-4.267 2.56-5.12 6.827-9.387 11.093-13.653 3.413-2.56 4.267-8.533.853-11.947-2.56-3.413-8.533-4.267-11.947-.853q-8.96 7.68-15.36 17.92c-1.706 4.267-.852 9.387 3.414 11.947zM346.453 167.253c-4.267-1.707-9.387-.853-11.947 3.413-2.56 5.12-6.827 9.387-11.093 13.653-3.413 2.56-4.267 8.533-.853 11.947 1.707 1.707 4.267 2.56 6.827 2.56 1.707 0 3.413-.853 5.12-1.707q8.96-7.68 15.36-17.92c1.706-4.266.853-9.386-3.414-11.946zM340.48 135.68c.853 4.267 4.267 6.827 8.533 6.827 0 0 .853 0 2.56.853 4.267-.853 7.68-5.973 6.827-10.24-1.707-7.68-4.267-15.36-8.533-22.187-2.56-4.267-7.68-5.973-11.947-3.413s-5.973 7.68-3.413 11.947c2.56 5.12 5.12 10.24 5.973 16.213zM290.133 93.867q8.96 0 17.92 2.56c.853.853 1.707.853 2.56.853q5.12 0 7.68-5.12c1.707-4.267-.853-9.387-5.12-11.093-6.827-2.56-15.36-4.267-23.04-4.267-5.12 0-8.533 3.413-8.533 8.533s3.413 8.534 8.533 8.534zM290.133 196.267c-5.973 0-11.093-1.707-17.067-3.413-4.267-1.707-9.387.853-11.093 5.12s.853 9.387 5.12 11.093c6.827 2.56 15.36 4.267 23.04 4.267 5.12 0 8.533-4.267 8.533-8.533.001-5.121-4.266-8.534-8.533-8.534zM238.08 183.467c1.707 0 3.413 0 3.413-.853 4.267-2.56 5.973-7.68 3.413-11.947-2.56-5.973-5.12-11.093-5.973-17.067-.853-4.267-5.973-7.68-10.24-6.827s-7.68 5.973-6.827 10.24c1.707 7.68 4.267 15.36 8.533 22.187 1.708 2.56 5.121 4.267 7.681 4.267zM290.133 179.2c18.773 0 34.133-15.36 34.133-34.133s-15.36-34.133-34.133-34.133S256 126.294 256 145.067s15.36 34.133 34.133 34.133zm0-51.2c9.387 0 17.067 7.68 17.067 17.067s-7.68 17.067-17.067 17.067-17.067-7.68-17.067-17.067S280.747 128 290.133 128zM187.733 264.533h-128c-14.507 0-25.6 11.093-25.6 25.6V307.2c0 14.507 11.093 25.6 25.6 25.6h128c14.507 0 25.6-11.093 25.6-25.6v-17.067c0-14.506-11.093-25.6-25.6-25.6zm8.534 42.667c0 5.12-3.413 8.533-8.533 8.533h-128c-5.12 0-8.533-3.413-8.533-8.533v-17.067c0-5.12 3.413-8.533 8.533-8.533h128c5.12 0 8.533 3.413 8.533 8.533zM341.333 273.067h-102.4c-5.12 0-8.533 3.413-8.533 8.533s3.413 8.533 8.533 8.533h102.4c5.12 0 8.533-3.413 8.533-8.533.001-5.12-3.413-8.533-8.533-8.533zM341.333 307.2h-102.4c-5.12 0-8.533 3.413-8.533 8.533s3.413 8.533 8.533 8.533h102.4c5.12 0 8.533-3.413 8.533-8.533s-3.413-8.533-8.533-8.533z"/><path d="M500.053 252.587c-7.68-5.12-17.92-6.827-26.453-3.413l-81.067 28.523V256c0-14.507-11.093-25.6-25.6-25.6H346.55c27.657-18.385 45.983-49.821 45.983-85.333 0-56.32-46.08-102.4-102.4-102.4-41.842 0-78.025 25.437-93.867 61.608-15.841-36.171-52.025-61.608-93.867-61.608C46.08 42.667 0 88.747 0 145.067c0 35.513 18.325 66.949 45.983 85.333H25.6C11.093 230.4 0 241.493 0 256v187.733c0 14.507 11.093 25.6 25.6 25.6h341.333c14.507 0 25.6-11.093 25.6-25.6v-21.697L473.6 450.56c2.56.853 5.973 1.707 9.387 1.707 5.973 0 11.947-1.707 17.067-4.267 7.68-5.973 11.947-14.507 11.947-23.893V276.48c-.001-9.387-4.268-18.773-11.948-23.893zM290.133 59.733c46.933 0 85.333 38.4 85.333 85.333s-38.4 85.333-85.333 85.333S204.8 192 204.8 145.067s38.4-85.334 85.333-85.334zM233.716 230.4h-74.899c16.382-10.889 29.485-26.358 37.449-44.542 7.965 18.184 21.068 33.653 37.45 44.542zM17.067 145.067c0-46.933 38.4-85.333 85.333-85.333s85.333 38.4 85.333 85.333-38.4 85.333-85.333 85.333-85.333-38.4-85.333-85.333zm358.4 298.666c0 5.12-3.413 8.533-8.533 8.533H25.6c-5.12 0-8.533-3.413-8.533-8.533V435.2h42.667c5.12 0 8.533-3.413 8.533-8.533s-3.413-8.533-8.533-8.533H17.067v-17.067h17.067c5.12 0 8.533-3.413 8.533-8.533S39.253 384 34.133 384H17.067V256c0-5.12 3.413-8.533 8.533-8.533h341.333c5.12 0 8.533 3.413 8.533 8.533v187.733zm17.066-148.48 68.267-24.094v157.415l-68.267-24.094zm103.254 128.854c0 3.413-1.707 6.827-5.12 9.387s-7.68 2.56-11.093 1.707l-1.707-.853v-168.96l1.707-.853c4.267-.853 7.68-.853 11.093 1.707 3.413 1.707 5.12 5.12 5.12 9.387z"/></svg>