<svg xmlns="http://www.w3.org/2000/svg" xml:space="preserve" width="20" height="20"><path d="M16.416 10.283a7.917 7.917 0 1 1-15.834 0 7.917 7.917 0 0 1 15.834 0zm-2.854-.455a5.087 5.087 0 0 0-1.011-2.474 5 5 0 0 0-.968-.97.792.792 0 0 0-.954 1.264c.25.19.474.415.663.666a3.5 3.5 0 0 1 .698 1.708 3.5 3.5 0 0 1-.692 2.559 3.56 3.56 0 0 1-2.377 1.362 3.4 3.4 0 0 1-.895-.005 3.54 3.54 0 0 1-2.335-1.361 3.513 3.513 0 0 1-.449-3.471q.178-.427.457-.795.288-.378.668-.665a.792.792 0 0 0-.959-1.26 5.06 5.06 0 0 0-1.63 2.117 5.1 5.1 0 0 0 .653 5.033 5.1 5.1 0 0 0 3.377 1.97c.434.06.875.063 1.31.009a5.147 5.147 0 0 0 3.443-1.979 5.1 5.1 0 0 0 1-3.708zm-5.858-.223a.792.792 0 1 0 1.584 0V5.429a.792.792 0 1 0-1.584 0z" style="stroke:#000;stroke-width:0;stroke-dasharray:none;stroke-linecap:butt;stroke-dashoffset:0;stroke-linejoin:miter;stroke-miterlimit:4;fill:#fff;fill-rule:nonzero;opacity:1" transform="translate(1.5 -.28)" vector-effect="non-scaling-stroke"/></svg>