<svg width="96" height="96" xmlns="http://www.w3.org/2000/svg" xmlns:xlink="http://www.w3.org/1999/xlink" xml:space="preserve" overflow="hidden"><g transform="translate(-938 -330)"><path d="M965 362C965 363.105 964.105 364 963 364 961.895 364 961 363.105 961 362 961 360.895 961.895 360 963 360 964.105 360 965 360.895 965 362Z" fill="#FFFFFF"/><path d="M965 370C965 371.105 964.105 372 963 372 961.895 372 961 371.105 961 370 961 368.895 961.895 368 963 368 964.105 368 965 368.895 965 370Z" fill="#FFFFFF"/><path d="M961 366C961 367.105 960.105 368 959 368 957.895 368 957 367.105 957 366 957 364.895 957.895 364 959 364 960.105 364 961 364.895 961 366Z" fill="#FFFFFF"/><path d="M969 366C969 367.105 968.105 368 967 368 965.895 368 965 367.105 965 366 965 364.895 965.895 364 967 364 968.105 364 969 364.895 969 366Z" fill="#FFFFFF"/><path d="M993 358C993 359.105 992.105 360 991 360 989.895 360 989 359.105 989 358 989 356.895 989.895 356 991 356 992.105 356 993 356.895 993 358Z" fill="#FFFFFF"/><path d="M993 366C993 367.105 992.105 368 991 368 989.895 368 989 367.105 989 366 989 364.895 989.895 364 991 364 992.105 364 993 364.895 993 366Z" fill="#FFFFFF"/><path d="M989 362C989 363.105 988.105 364 987 364 985.895 364 985 363.105 985 362 985 360.895 985.895 360 987 360 988.105 360 989 360.895 989 362Z" fill="#FFFFFF"/><path d="M997 362C997 363.105 996.105 364 995 364 993.895 364 993 363.105 993 362 993 360.895 993.895 360 995 360 996.105 360 997 360.895 997 362Z" fill="#FFFFFF"/><path d="M1020 375 1014 381 1006 381 1006 403 1014 403 1020 409 1026 409 1026 375Z" fill="#FFFFFF"/><path d="M991 371C986 371 982 367 982 362 982 357 986 353 991 353 996 353 1000 357 1000 362 1000 367 996 371 991 371ZM994 403C992.9 403 992 402.1 992 401 992 399.9 992.9 399 994 399 995.1 399 996 399.9 996 401 996 402.1 995.1 403 994 403ZM975 375C976.3 373.2 977.3 371.2 977.7 368.9 979 371.4 981.1 373.5 983.5 375L975 375ZM963 375C958 375 954 371 954 366 954 361 958 357 963 357 968 357 972 361 972 366 972 371 968 375 963 375ZM998.4 375C1002.9 372.4 1006 367.6 1006 362 1006 353.7 999.3 347 991 347 983.7 347 977.7 352.2 976.3 359.1 973.8 354.3 968.8 351 963 351 954.7 351 948 357.7 948 366 948 370.9 950.4 375.2 954 378L954 381 952 381 950 379 946 379 946 389 950 389 952 387 954 387 954 405C954 407.2 955.8 409 958 409L998 409C1000.2 409 1002 407.2 1002 405L1002 379C1002 376.9 1000.4 375.2 998.4 375Z" fill="#FFFFFF"/></g></svg>
