<svg width="96" height="96" xmlns="http://www.w3.org/2000/svg" xmlns:xlink="http://www.w3.org/1999/xlink" xml:space="preserve" overflow="hidden"><g transform="translate(-752 -409)"><path d="M817 438 811 438 811 432 817 432 817 438ZM817 454 811 454 811 448 817 448 817 454ZM817 470 811 470 811 464 817 464 817 470ZM817 486 811 486 811 480 817 480 817 486ZM803 438 797 438 797 432 803 432 803 438ZM803 454 797 454 797 448 803 448 803 454ZM803 470 797 470 797 464 803 464 803 470ZM803 492 797 492 797 480 803 480 803 492ZM789 438 783 438 783 432 789 432 789 438ZM789 454 783 454 783 448 789 448 789 454ZM789 470 783 470 783 464 789 464 789 470ZM789 486 783 486 783 480 789 480 789 486ZM824 492 824 425 821 425 821 419 818 419 818 415 782 415 782 419 779 419 779 425 776 425 776 492 772 492 772 499 828 499 828 492 824 492Z" fill="#FFFFFF"/></g></svg>