<!DOCTYPE svg PUBLIC "-//W3C//DTD SVG 1.1//EN" "http://www.w3.org/Graphics/SVG/1.1/DTD/svg11.dtd">
<!-- Uploaded to: SVG Repo, www.svgrepo.com, Transformed by: SVG Repo Mixer Tools -->
<svg fill="#ffffff" height="800px" width="800px" version="1.1" id="Capa_1" xmlns="http://www.w3.org/2000/svg" xmlns:xlink="http://www.w3.org/1999/xlink" viewBox="0 0 512 512" xml:space="preserve" transform="rotate(-45)" stroke="#ffffff">
<g id="SVGRepo_bgCarrier" stroke-width="0"/>
<g id="SVGRepo_tracerCarrier" stroke-linecap="round" stroke-linejoin="round"/>
<g id="SVGRepo_iconCarrier"> <g> <g> <path d="M494.627,236.367h9.794c4.186,0,7.579-3.392,7.579-7.579v-45.47c0-4.187-3.393-7.579-7.579-7.579h-9.794 c-8.203,0-14.878-6.674-14.878-14.878v-15.25c0-4.187-3.393-7.579-7.579-7.579H190.737c-4.186,0-7.579,3.392-7.579,7.579 c0,4.187,3.393,7.579,7.579,7.579h273.854v7.671c0,16.562,13.473,30.036,30.036,30.036h2.215v30.312h-2.215 c-16.562,0-30.036,13.474-30.036,30.036s13.473,30.036,30.036,30.036h2.215v30.312h-2.215c-16.562,0-30.036,13.474-30.036,30.036 v17.181h-52.405c-4.186,0-7.579,3.392-7.579,7.579s3.393,7.579,7.579,7.579h59.984c4.186,0,7.579-3.392,7.579-7.579v-24.76 c0-8.203,6.674-14.878,14.878-14.878h9.794c4.186,0,7.579-3.392,7.579-7.579v-45.47c0-4.187-3.393-7.579-7.579-7.579h-9.794 c-8.203,0-14.878-6.674-14.878-14.878S486.423,236.367,494.627,236.367z"/> </g> </g> <g> <g> <path d="M345.665,358.81H47.409v-7.671c0-16.562-13.474-30.036-30.036-30.036h-2.215v-30.312h2.215 c16.562,0,30.036-13.474,30.036-30.036s-13.474-30.036-30.036-30.036h-2.215v-30.312h2.215c16.562,0,30.036-13.474,30.036-30.036 V153.19h86.492c4.186,0,7.579-3.392,7.579-7.579c0-4.187-3.393-7.579-7.579-7.579H39.83c-4.186,0-7.579,3.392-7.579,7.579v24.76 c0,8.203-6.675,14.878-14.878,14.878H7.579c-4.186,0-7.579,3.392-7.579,7.579v45.47c0,4.187,3.393,7.579,7.579,7.579h9.794 c8.203,0,14.878,6.674,14.878,14.878c0,8.204-6.675,14.878-14.878,14.878H7.579c-4.186,0-7.579,3.392-7.579,7.579v45.47 c0,4.187,3.393,7.579,7.579,7.579h9.794c8.203,0,14.878,6.674,14.878,14.878v15.25c0,4.187,3.393,7.579,7.579,7.579h305.835 c4.186,0,7.579-3.392,7.579-7.579S349.852,358.81,345.665,358.81z"/> </g> </g> <g> <g> <path d="M433.367,173.562H213.499c-4.186,0-7.579,3.392-7.579,7.579s3.393,7.579,7.579,7.579h212.289v134.559H90.816V188.72 h63.692c4.186,0,7.579-3.392,7.579-7.579s-3.393-7.579-7.579-7.579H83.237c-4.186,0-7.579,3.393-7.579,7.579v149.717 c0,4.187,3.393,7.579,7.579,7.579h350.13c4.186,0,7.579-3.392,7.579-7.579V181.141 C440.946,176.954,437.553,173.562,433.367,173.562z"/> </g> </g> <g> <g> <path d="M310.079,236.35c-0.824-2.535-2.917-4.45-5.516-5.046l-26.037-5.965l-13.72-22.921c-1.368-2.287-3.838-3.685-6.503-3.685 s-5.134,1.4-6.503,3.685l-13.72,22.921l-26.037,5.965c-2.598,0.595-4.692,2.51-5.516,5.046c-0.824,2.534-0.256,5.315,1.496,7.323 l17.558,20.132l-2.372,26.607c-0.237,2.655,0.938,5.239,3.094,6.804c1.316,0.956,2.879,1.448,4.455,1.448 c1.005,0,2.017-0.2,2.972-0.608l24.572-10.478l24.571,10.478c2.451,1.046,5.271,0.727,7.427-0.84 c2.156-1.566,3.331-4.149,3.094-6.804l-2.372-26.607l17.558-20.132C310.334,241.666,310.902,238.885,310.079,236.35z M277.476,256.278c-1.357,1.556-2.021,3.599-1.837,5.655l1.535,17.215l-15.898-6.78c-1.899-0.811-4.047-0.811-5.946,0 l-15.899,6.78l1.535-17.215c0.184-2.056-0.48-4.099-1.837-5.655l-11.36-13.026l16.847-3.859c2.013-0.461,3.75-1.723,4.81-3.494 l8.878-14.831l8.878,14.831c1.06,1.771,2.798,3.034,4.81,3.494l16.847,3.859L277.476,256.278z"/> </g> </g> <g> <g> <path d="M184.172,246.743c-0.824-2.535-2.917-4.45-5.515-5.046l-17.018-3.9l-8.966-14.98c-1.368-2.287-3.838-3.685-6.503-3.685 c-2.665,0-5.135,1.4-6.503,3.685l-8.967,14.98l-17.018,3.9c-2.597,0.595-4.692,2.51-5.516,5.046 c-0.824,2.534-0.256,5.315,1.496,7.323l11.476,13.158l-1.55,17.39c-0.236,2.655,0.938,5.239,3.094,6.804 c1.316,0.956,2.879,1.448,4.455,1.448c1.005,0,2.017-0.2,2.972-0.608l16.06-6.848l16.06,6.848c2.45,1.045,5.272,0.727,7.427-0.84 c2.156-1.566,3.331-4.149,3.094-6.804l-1.55-17.39l11.477-13.158C184.428,252.058,184.996,249.277,184.172,246.743z M157.652,259.698c-1.357,1.556-2.021,3.599-1.837,5.655l0.713,7.998l-7.387-3.15c-1.898-0.811-4.046-0.811-5.946,0l-7.387,3.15 l0.713-7.998c0.184-2.056-0.48-4.099-1.837-5.655l-5.279-6.052l7.829-1.794c2.012-0.461,3.749-1.723,4.81-3.494l4.125-6.89 l4.125,6.89c1.06,1.771,2.798,3.034,4.81,3.494l7.829,1.794L157.652,259.698z"/> </g> </g> <g> <g> <path d="M401.73,246.744c-0.824-2.535-2.917-4.45-5.516-5.046l-17.018-3.9l-8.967-14.98c-1.368-2.287-3.838-3.685-6.503-3.685 s-5.135,1.4-6.503,3.685l-8.967,14.98l-17.018,3.9c-2.597,0.595-4.692,2.51-5.516,5.046c-0.824,2.534-0.256,5.315,1.496,7.323 l11.476,13.158l-1.55,17.39c-0.236,2.655,0.938,5.239,3.094,6.804c1.316,0.956,2.879,1.448,4.455,1.448 c1.005,0,2.017-0.2,2.972-0.608l16.06-6.848l16.06,6.848c2.45,1.045,5.271,0.727,7.427-0.84c2.156-1.566,3.331-4.149,3.094-6.804 l-1.55-17.39l11.477-13.158C401.985,252.059,402.553,249.278,401.73,246.744z M375.209,259.698 c-1.357,1.556-2.021,3.599-1.837,5.655l0.713,7.998l-7.387-3.15c-1.898-0.811-4.046-0.811-5.946,0l-7.387,3.15l0.713-7.998 c0.184-2.056-0.48-4.099-1.837-5.655l-5.279-6.052l7.829-1.794c2.012-0.461,3.749-1.723,4.81-3.494l4.125-6.89l4.125,6.89 c1.06,1.771,2.798,3.034,4.81,3.494l7.829,1.794L375.209,259.698z"/> </g> </g> </g>
</svg>