<svg width="234" height="268" xmlns="http://www.w3.org/2000/svg" xmlns:xlink="http://www.w3.org/1999/xlink" xml:space="preserve" overflow="hidden"><defs><clipPath id="clip0"><rect x="1492" y="89" width="234" height="268"/></clipPath></defs><g clip-path="url(#clip0)" transform="translate(-1492 -89)"><path d="M1615 172C1615 175.866 1612.09 179 1608.5 179 1604.91 179 1602 175.866 1602 172 1602 168.134 1604.91 165 1608.5 165 1612.09 165 1615 168.134 1615 172Z" fill="#0D6EFD" fill-rule="evenodd"/><path d="M1615 309.5C1615 313.09 1612.09 316 1608.5 316 1604.91 316 1602 313.09 1602 309.5 1602 305.91 1604.91 303 1608.5 303 1612.09 303 1615 305.91 1615 309.5Z" fill="#0D6EFD" fill-rule="evenodd"/><path d="M1684 237C1684 240.866 1680.87 244 1677 244 1673.13 244 1670 240.866 1670 237 1670 233.134 1673.13 230 1677 230 1680.87 230 1684 233.134 1684 237Z" fill="#0D6EFD" fill-rule="evenodd"/><path d="M1547 237C1547 240.866 1543.87 244 1540 244 1536.13 244 1533 240.866 1533 237 1533 233.134 1536.13 230 1540 230 1543.87 230 1547 233.134 1547 237Z" fill="#0D6EFD" fill-rule="evenodd"/><path d="M1615.53 189 1602 189 1602 237.142C1602 238.862 1602.68 240.581 1604.03 241.957L1637.53 276 1647 266.372 1615.53 234.391 1615.53 189Z" fill="#0D6EFD" fill-rule="evenodd"/><path d="M1608.79 336.558C1555.5 336.558 1512.52 293.579 1512.52 240.285 1512.52 186.992 1555.5 144.013 1608.79 144.013 1662.08 144.013 1705.06 186.992 1705.06 240.285 1705.06 293.579 1662.08 336.558 1608.79 336.558L1608.79 336.558ZM1690.28 156.391 1700.59 146.076C1704.37 141.95 1704.37 135.761 1700.25 131.635 1696.47 127.853 1689.93 127.509 1685.81 131.291L1674.12 143.325C1657.61 132.323 1638.7 125.446 1619.11 124.071L1619.11 109.63 1650.05 109.63 1650.05 89 1567.53 89 1567.53 109.63 1598.48 109.63 1598.48 123.727C1543.81 128.541 1499.8 170.832 1492.93 225.501 1486.05 280.17 1518.02 332.088 1569.94 350.311 1621.86 368.534 1679.27 348.592 1708.5 301.831 1737.72 255.07 1729.47 194.556 1690.28 156.391L1690.28 156.391Z" fill="#0D6EFD" fill-rule="evenodd"/></g></svg>